<svg xmlns="http://www.w3.org/2000/svg" viewBox="0 0 47 47"><defs><style>.cls-1{fill:#fff;}</style></defs><title>icon</title><g id="Layer_2" data-name="Layer 2"><g id="BLACK_LIMNES" data-name="BLACK LIMNES"><circle class="cls-1" cx="23.5" cy="23.5" r="23.5"/><path d="M13.34,10.25h2.28v9.82h5v2H13.34Z"/><path d="M27.48,10.08a6,6,0,0,1,6.18,6.09,6,6,0,0,1-6.18,6.1,6,6,0,0,1-6.18-6.1A6,6,0,0,1,27.48,10.08Zm0,10.16a3.94,3.94,0,0,0,3.9-4.07,3.9,3.9,0,1,0-7.79,0A3.94,3.94,0,0,0,27.48,20.24Z"/><path d="M13.34,25.07h2.28v9.82h5v2H13.34Z"/><path d="M21.81,36.93l5.08-11.86H28.5l5.08,11.86H31.19L30.07,34.3H25.31L24.2,36.93Zm4.37-4.66h3l-1.5-3.51Z"/></g></g></svg>