<svg xmlns="http://www.w3.org/2000/svg" viewBox="0 0 133.52 133.08"><defs><style>.cls-1{fill:#ffff3d;stroke:#000;stroke-miterlimit:10;}</style></defs><title>sun4</title><g id="Layer_2" data-name="Layer 2"><g id="BLACK_LIMNES" data-name="BLACK LIMNES"><circle class="cls-1" cx="66.76" cy="66.65" r="33.83"/><rect class="cls-1" x="63.06" y="0.5" width="7.59" height="22.56" rx="3.8"/><rect class="cls-1" x="63.06" y="110.02" width="7.59" height="22.56" rx="3.8"/><rect class="cls-1" x="7.98" y="55.63" width="7.59" height="22.56" rx="3.8" transform="translate(78.69 55.13) rotate(90)"/><rect class="cls-1" x="117.95" y="55.63" width="7.59" height="22.56" rx="3.8" transform="translate(188.65 -54.84) rotate(90)"/><rect class="cls-1" x="103.24" y="93.49" width="7.59" height="22.56" rx="3.8" transform="translate(-42.73 106.37) rotate(-45)"/><rect class="cls-1" x="101.14" y="15.07" width="7.59" height="22.56" rx="3.8" transform="translate(49.37 -66.49) rotate(45)"/><rect class="cls-1" x="23.66" y="94.76" width="7.59" height="22.56" rx="3.8" transform="translate(83.02 11.64) rotate(45)"/><rect class="cls-1" x="26.97" y="13.81" width="7.59" height="22.56" rx="3.8" transform="translate(-8.73 29.1) rotate(-45)"/></g></g></svg>