<svg xmlns="http://www.w3.org/2000/svg" viewBox="0 0 135.8 134.26"><defs><style>.cls-1{fill:#231f20;}.cls-2{fill:#ffff3d;}</style></defs><title>sun6</title><g id="Layer_2" data-name="Layer 2"><g id="BLACK_LIMNES" data-name="BLACK LIMNES"><circle class="cls-1" cx="66.26" cy="68.33" r="33.83"/><rect class="cls-1" x="62.56" y="2.18" width="7.59" height="22.56" rx="3.8"/><rect class="cls-1" x="62.56" y="111.7" width="7.59" height="22.56" rx="3.8"/><rect class="cls-1" x="7.48" y="57.31" width="7.59" height="22.56" rx="3.8" transform="translate(79.87 57.31) rotate(90)"/><rect class="cls-1" x="117.45" y="57.31" width="7.59" height="22.56" rx="3.8" transform="translate(189.84 -52.66) rotate(90)"/><rect class="cls-1" x="102.74" y="95.17" width="7.59" height="22.56" rx="3.8" transform="translate(-44.07 106.51) rotate(-45)"/><rect class="cls-1" x="100.64" y="16.75" width="7.59" height="22.56" rx="3.8" transform="translate(50.41 -65.64) rotate(45)"/><rect class="cls-1" x="23.16" y="96.44" width="7.59" height="22.56" rx="3.8" transform="translate(84.06 12.49) rotate(45)"/><rect class="cls-1" x="26.47" y="15.49" width="7.59" height="22.56" rx="3.8" transform="translate(-10.06 29.24) rotate(-45)"/><circle class="cls-2" cx="69.54" cy="66.15" r="33.83"/><rect class="cls-2" x="65.84" width="7.59" height="22.56" rx="3.8"/><rect class="cls-2" x="65.84" y="109.52" width="7.59" height="22.56" rx="3.8"/><rect class="cls-2" x="10.76" y="55.13" width="7.59" height="22.56" rx="3.8" transform="translate(80.96 51.86) rotate(90)"/><rect class="cls-2" x="120.72" y="55.13" width="7.59" height="22.56" rx="3.8" transform="translate(190.93 -58.11) rotate(90)"/><rect class="cls-2" x="106.01" y="92.99" width="7.59" height="22.56" rx="3.8" transform="translate(-41.57 108.18) rotate(-45)"/><rect class="cls-2" x="103.91" y="14.57" width="7.59" height="22.56" rx="3.8" transform="translate(49.82 -68.59) rotate(45)"/><rect class="cls-2" x="26.44" y="94.26" width="7.59" height="22.56" rx="3.8" transform="translate(83.48 9.53) rotate(45)"/><rect class="cls-2" x="29.74" y="13.31" width="7.59" height="22.56" rx="3.8" transform="translate(-7.56 30.92) rotate(-45)"/></g></g></svg>