<svg xmlns="http://www.w3.org/2000/svg" viewBox="0 0 95.98 47.23"><title>windleft</title><g id="Layer_2" data-name="Layer 2"><g id="BLACK_LIMNES" data-name="BLACK LIMNES"><path d="M93.57,41.61c-20.38.71-41.94,2.27-62-2.1-9-1.95-18-5.84-23-14a20.69,20.69,0,0,1-3.33-12.5C5.39,11,6,7.57,7.71,6.14c3.84-3.22,7.35,1.54,4.71,5.05-1.93,2.57,2.41,5.06,4.32,2.52C23,5.38,11.55-4.9,4.17,2.61c-7.89,8-3.28,22.24,3.06,29.56,8.61,9.95,22.43,12.67,34.89,13.94,17.09,1.73,34.31,1.1,51.45.5,3.2-.11,3.22-5.11,0-5Z"/></g></g></svg>