<svg xmlns="http://www.w3.org/2000/svg" viewBox="0 0 95.99 47.2"><title>wind</title><g id="Layer_2" data-name="Layer 2"><g id="BLACK_LIMNES" data-name="BLACK LIMNES"><path d="M2.41,46.59c17.14.6,34.35,1.21,51.44-.51,12.45-1.25,26.32-4,34.9-13.94,6.28-7.28,11-21.57,3-29.56C84.39-4.86,73,5.33,79.24,13.69c1.91,2.54,6.25.05,4.31-2.53-2.63-3.51.88-8.27,4.72-5C90,7.55,90.59,11,90.77,13a20.69,20.69,0,0,1-3.33,12.5c-5,8.11-14,12-23,14-20.09,4.37-41.65,2.81-62,2.1-3.22-.11-3.21,4.89,0,5Z"/></g></g></svg>